<?xml version="1.0" standalone="no"?>
<!DOCTYPE svg PUBLIC "-//W3C//DTD SVG 20010904//EN"
 "http://www.w3.org/TR/2001/REC-SVG-20010904/DTD/svg10.dtd">
<svg version="1.0" xmlns="http://www.w3.org/2000/svg"
 width="1707.000000pt" height="1707.000000pt" viewBox="0 0 1707.000000 1707.000000"
 preserveAspectRatio="xMidYMid meet">
<metadata>
Created by potrace 1.14, written by Peter Selinger 2001-2017
</metadata>
<g transform="translate(0.000000,1707.000000) scale(0.100000,-0.100000)"
fill="#000000" stroke="none">
<path d="M1307 14254 c-1 -1 -32 -4 -69 -8 -110 -10 -202 -33 -329 -83 -109
-42 -124 -45 -153 -35 -18 7 -42 12 -54 12 -12 0 -45 9 -74 21 -68 27 -123 22
-209 -20 -75 -36 -127 -85 -136 -127 -3 -16 -6 -88 -7 -161 l-1 -131 -138
-141 c-135 -138 -138 -142 -133 -177 8 -47 43 -129 65 -148 10 -9 35 -22 56
-29 34 -12 41 -19 50 -56 18 -76 83 -121 173 -121 60 0 105 27 146 90 42 64
198 213 243 233 21 9 70 28 108 43 39 15 108 49 154 75 46 26 97 51 115 55 17
3 52 18 79 32 43 23 50 24 85 13 34 -12 121 -9 142 4 29 18 170 25 262 14 102
-12 123 -17 220 -53 299 -108 468 -228 851 -606 115 -113 219 -211 233 -218
26 -14 33 -25 9 -16 -8 4 -15 3 -15 -1 0 -6 129 -176 182 -240 5 -5 42 -54 84
-107 41 -54 81 -98 89 -98 8 0 17 -4 20 -10 4 -6 -1 -7 -11 -3 -13 5 -6 -15
26 -73 24 -43 61 -113 83 -154 42 -81 158 -369 176 -437 6 -23 20 -69 31 -101
32 -102 72 -294 85 -409 3 -27 7 -64 10 -83 2 -19 7 -73 10 -120 4 -47 9 -96
11 -110 2 -14 6 -133 9 -265 6 -318 15 -633 20 -720 2 -38 6 -124 10 -190 3
-66 8 -133 10 -150 14 -110 18 -163 30 -415 8 -170 13 -243 31 -387 3 -27 23
-120 44 -208 22 -88 42 -176 45 -195 13 -80 37 -154 71 -222 48 -96 111 -186
137 -194 14 -4 16 -8 7 -14 -10 -6 -4 -27 25 -86 51 -108 112 -262 120 -304 6
-31 9 -87 16 -260 3 -85 33 -176 88 -275 28 -49 58 -112 67 -140 14 -42 36
-69 136 -167 66 -65 125 -118 132 -118 17 0 47 -34 50 -57 2 -10 -4 -29 -14
-43 -23 -34 -37 -83 -44 -155 -3 -33 -24 -123 -47 -200 -31 -107 -41 -158 -43
-221 -1 -78 -4 -86 -63 -205 -34 -68 -65 -137 -69 -154 -14 -59 -64 -153 -137
-256 -40 -57 -86 -126 -102 -154 -15 -27 -43 -74 -62 -103 -19 -29 -49 -78
-67 -110 -28 -50 -36 -70 -51 -122 -18 -65 -23 -114 -30 -289 -5 -112 -9 -139
-23 -151 -47 -40 -58 -66 -56 -129 1 -34 -2 -63 -6 -66 -7 -5 -6 -63 4 -215 3
-41 14 -109 25 -150 10 -41 19 -84 19 -95 1 -43 -21 -132 -44 -177 -13 -26
-24 -59 -24 -73 0 -15 -11 -50 -24 -78 -20 -44 -24 -66 -23 -137 2 -84 2 -85
27 -82 13 1 38 15 55 31 39 37 99 66 152 75 66 10 105 34 138 84 30 46 57 61
143 77 98 18 252 109 268 158 4 12 7 55 6 95 -1 85 -18 120 -101 215 -28 32
-51 64 -52 70 -1 7 -2 26 -3 42 -1 17 -6 53 -10 81 -10 70 8 110 93 198 57 58
74 84 95 142 35 96 65 148 135 232 136 162 221 319 221 409 0 22 7 39 22 51
44 35 58 52 58 70 0 9 9 31 20 47 11 17 20 38 20 48 0 19 25 61 51 88 24 24
165 261 180 303 7 20 16 36 21 36 10 0 62 -78 76 -115 6 -16 20 -67 31 -111
22 -92 46 -154 59 -154 4 0 17 -8 28 -18 38 -35 69 -52 96 -52 42 0 70 -48 73
-125 2 -35 8 -71 13 -82 6 -10 13 -84 16 -163 3 -80 12 -170 20 -200 18 -69
76 -205 123 -290 154 -277 196 -389 164 -439 -11 -17 22 -145 43 -166 21 -21
20 -24 -5 -51 l-20 -22 26 -52 c29 -56 34 -108 16 -162 -13 -39 -20 -69 -26
-112 -2 -15 -9 -34 -15 -42 -15 -17 -69 -35 -124 -39 -69 -6 -112 -28 -119
-61 -4 -16 -32 -56 -63 -89 -90 -96 -130 -180 -98 -205 13 -12 53 -10 155 6
20 4 39 2 42 -3 4 -6 32 -8 64 -5 32 2 69 4 83 4 308 -10 371 -10 411 0 24 6
49 14 54 18 14 11 172 48 228 54 46 4 153 49 188 78 24 20 38 52 43 97 6 60
-8 110 -54 188 -40 70 -81 177 -118 308 -27 94 -34 142 -47 347 -3 47 -7 95
-9 105 -2 10 -7 45 -10 78 -6 50 -36 243 -51 320 -2 11 -15 74 -30 140 -35
158 -54 250 -61 305 -3 25 -17 90 -31 144 l-26 100 18 69 c10 38 18 82 17 99
-1 30 -24 74 -49 93 -7 6 -19 33 -26 60 -7 28 -32 79 -55 114 -37 57 -56 109
-34 98 177 -92 457 -152 732 -157 189 -3 344 -13 425 -26 17 -3 44 -7 60 -9
33 -3 145 -22 185 -30 14 -3 37 -7 52 -10 15 -3 65 -14 110 -26 46 -11 90 -22
98 -23 8 -2 72 -18 141 -35 162 -40 201 -47 378 -66 60 -7 90 -19 92 -38 1 -7
2 -23 3 -37 1 -14 6 -43 11 -65 4 -22 9 -46 11 -54 2 -8 -4 -31 -13 -50 -12
-27 -15 -66 -14 -158 1 -68 -3 -153 -9 -189 -6 -37 -13 -95 -15 -130 -3 -35
-7 -79 -10 -99 -2 -20 -7 -131 -10 -248 -9 -361 -17 -435 -57 -526 -12 -27
-22 -78 -25 -120 -5 -72 -12 -90 -63 -154 -3 -4 -26 -10 -51 -13 -59 -8 -94
-35 -130 -100 -17 -30 -34 -54 -37 -55 -7 -1 -22 -3 -79 -14 -18 -3 -33 -10
-33 -14 0 -16 -36 -49 -78 -70 -69 -35 -133 -113 -144 -176 -3 -21 -2 -21 126
-24 25 -1 28 -4 24 -26 -3 -14 -1 -25 6 -25 80 -3 197 0 260 6 59 5 77 4 72
-4 -5 -8 4 -12 26 -13 18 0 42 -2 53 -4 32 -6 105 -6 190 2 44 3 163 6 265 5
102 -1 205 3 229 7 60 12 83 42 76 100 -3 24 -10 52 -16 62 -8 17 -7 49 6 109
15 75 25 130 30 170 3 25 7 61 10 80 2 19 7 61 10 93 12 123 152 585 285 942
20 55 42 129 49 165 6 36 13 76 16 90 3 14 8 72 10 130 3 58 10 117 16 132 6
16 9 37 6 49 -3 12 7 46 24 82 16 34 29 70 29 80 0 26 48 97 65 97 8 0 15 -7
15 -16 0 -9 11 -30 26 -46 14 -17 36 -52 49 -78 13 -25 30 -52 38 -58 8 -7 18
-28 21 -46 4 -18 16 -42 27 -52 12 -11 32 -35 45 -56 14 -23 36 -40 58 -48 23
-7 38 -20 44 -38 12 -36 195 -275 289 -378 39 -43 104 -119 143 -169 39 -49
111 -133 160 -185 147 -159 148 -161 186 -274 33 -96 41 -177 21 -207 -12 -17
-14 -27 -5 -42 11 -22 4 -117 -12 -147 -5 -10 -21 -21 -35 -24 -28 -7 -55 -52
-55 -91 0 -26 -47 -79 -80 -90 -31 -11 -52 -56 -58 -121 -6 -76 5 -85 71 -61
59 23 87 27 217 32 151 7 201 13 226 30 12 8 60 30 108 49 47 19 116 55 153
79 78 52 184 106 265 137 69 25 99 49 137 104 l29 42 -23 59 c-42 103 -82 152
-152 185 -48 23 -64 36 -69 57 -7 28 -40 62 -60 63 -11 0 -22 20 -61 110 -11
25 -51 83 -87 130 -48 61 -91 133 -150 255 -76 155 -96 206 -137 345 -20 68
-106 277 -146 351 -20 39 -59 91 -94 125 -105 102 -130 198 -90 341 14 53 14
54 -15 114 l-29 61 28 49 c15 27 27 55 27 63 0 32 123 29 335 -9 81 -15 218
-17 275 -5 87 18 117 43 173 140 89 152 135 214 231 312 200 202 481 413 749
564 164 93 457 221 658 288 131 44 555 149 692 171 18 3 43 7 57 10 44 8 94
17 123 20 125 17 193 25 262 30 44 3 96 8 115 10 19 3 85 7 145 10 61 3 135 8
165 10 30 3 100 7 155 10 55 3 123 8 150 10 257 19 493 25 595 13 170 -19 205
-24 300 -45 230 -49 503 -193 597 -316 63 -82 75 -280 30 -465 -33 -132 -219
-469 -334 -604 -130 -152 -247 -253 -465 -401 -137 -92 -188 -136 -188 -161 0
-48 114 -42 235 14 121 54 362 235 505 379 198 198 470 565 470 632 0 6 11 34
24 62 45 99 66 162 81 240 35 186 20 244 -159 605 -57 116 -228 306 -370 414
-141 106 -642 329 -916 408 -36 10 -128 37 -205 60 -266 79 -437 121 -555 136
-25 3 -52 7 -60 9 -8 2 -46 7 -85 11 -38 3 -79 8 -89 10 -10 2 -58 6 -105 9
-47 4 -97 8 -111 10 -66 10 -374 19 -645 19 -260 0 -443 -4 -765 -19 -604 -27
-1353 -27 -1581 0 -94 12 -247 38 -324 55 -45 11 -92 21 -105 23 -85 16 -418
109 -600 169 -118 38 -233 76 -255 83 -22 7 -94 27 -160 44 -66 17 -136 36
-155 41 -119 33 -530 131 -605 145 -49 10 -99 19 -110 21 -24 5 -191 35 -220
40 -11 2 -31 5 -45 8 -53 11 -398 67 -445 72 -27 3 -52 7 -55 9 -3 2 -37 6
-75 10 -39 4 -81 8 -95 11 -102 17 -470 22 -871 10 -222 -6 -260 -8 -434 -21
-49 -4 -112 -9 -140 -11 -54 -4 -149 -13 -205 -19 -19 -2 -75 -7 -125 -10 -49
-4 -103 -8 -120 -10 -16 -2 -64 -6 -105 -10 -41 -3 -91 -8 -110 -10 -19 -2
-69 -7 -110 -10 -41 -4 -88 -9 -105 -11 -61 -8 -252 -5 -304 5 -69 14 -143 36
-173 52 -34 18 -146 128 -178 174 -74 107 -169 304 -218 450 -34 103 -95 342
-107 425 -9 55 -34 196 -39 220 -3 14 -8 41 -10 60 -4 29 -32 198 -52 315 -5
25 -77 379 -90 440 -3 11 -9 43 -14 70 -6 28 -12 61 -15 75 -7 36 -24 130 -30
165 -10 59 -48 173 -106 317 -148 370 -228 538 -329 688 -9 14 -74 111 -143
215 -169 255 -293 401 -592 700 -155 154 -273 248 -463 368 -130 83 -358 198
-507 256 -60 24 -119 47 -130 52 -83 35 -446 133 -535 143 -119 14 -482 29
-493 20z m-67 -594 c0 -5 -15 -10 -32 -9 -31 1 -32 1 -8 9 35 11 40 11 40 0z
m2150 -1463 c0 -5 -4 -5 -10 -2 -5 3 -10 14 -10 23 0 15 2 15 10 2 5 -8 10
-19 10 -23z m49 -87 c11 -24 11 -24 -3 -6 -9 11 -16 24 -16 30 0 12 5 7 19
-24z m238 -582 c-3 -8 -6 -5 -6 6 -1 11 2 17 5 13 3 -3 4 -12 1 -19z m24 -111
c-10 -9 -11 -8 -5 6 3 10 9 15 12 12 3 -3 0 -11 -7 -18z m176 -2369 c-3 -8 -6
-5 -6 6 -1 11 2 17 5 13 3 -3 4 -12 1 -19z m33 -368 c0 -5 -2 -10 -4 -10 -3 0
-8 5 -11 10 -3 6 -1 10 4 10 6 0 11 -4 11 -10z m7 -82 c-3 -8 -6 -5 -6 6 -1
11 2 17 5 13 3 -3 4 -12 1 -19z m23 -72 c0 -3 -4 -8 -10 -11 -5 -3 -10 -1 -10
4 0 6 5 11 10 11 6 0 10 -2 10 -4z m13 -76 c3 -11 1 -18 -4 -14 -5 3 -9 12 -9
20 0 20 7 17 13 -6z m382 -931 c9 -17 15 -33 13 -35 -3 -2 -12 12 -21 31 -21
43 -13 47 8 4z m250 -851 c24 -24 30 -33 14 -23 -23 17 -65 65 -56 65 1 0 21
-19 42 -42z"/>
</g>
</svg>
